# xmcd CD database file
#
# Track frame offsets:
#	150
#	23335
#	45655
#
# Disc length: 886 seconds
#
# Revision: 0
# Processed by: cddbd v1.5.1PL0 Copyright (c) Steve Scherf et al.
# Submitted via: CDex 1.51
#
DISCID=15037403
DTITLE=Shiver - hypnosis
DYEAR=1900
DGENRE=Rock
TTITLE0=hypnosis
TTITLE1=細胞
TTITLE2=Gimmick
EXTD=
EXTT0=
EXTT1=
EXTT2=
PLAYORDER=
